# xmcd
#
# Track frame offsets: 
#        150
#        19254
#        35029
#        54438
#        70272
#        86352
#        102434
#        120133
#        138680
#        150509
#        165197
#
# Disc length: 2371 seconds
#
# Revision: 0
# Processed by: cddbd v1.5.2PL0 Copyright (c) Steve Scherf et al.
# Submitted via: ExactAudioCopy v0.99pb5
#
DISCID=8309410b
DTITLE=Brandi Carlile - Give Up The Ghost
DYEAR=2009
DGENRE=
TTITLE0=Looking Out
TTITLE1=Dying Day
TTITLE2=Pride And Joy
TTITLE3=Dreams
TTITLE4=That Year
TTITLE5=Caroline
TTITLE6=Before It Breaks
TTITLE7=I Will
TTITLE8=If There Was No You
TTITLE9=Touching The Ground
TTITLE10=Oh Dear
EXTD=
EXTT0=
EXTT1=
EXTT2=
EXTT3=
EXTT4=
EXTT5=
EXTT6=
EXTT7=
EXTT8=
EXTT9=
EXTT10=
PLAYORDER=
